<?xml version="1.0" standalone="no"?>
<!DOCTYPE svg PUBLIC "-//W3C//DTD SVG 20010904//EN"
 "http://www.w3.org/TR/2001/REC-SVG-20010904/DTD/svg10.dtd">
<svg version="1.0" xmlns="http://www.w3.org/2000/svg"
 width="1000.000000pt" height="1000.000000pt" viewBox="0 0 1000.000000 1000.000000"
 preserveAspectRatio="xMidYMid meet">
<metadata>
Created by potrace 1.14, written by Peter Selinger 2001-2017
</metadata>
<g transform="translate(0.000000,1000.000000) scale(0.100000,-0.100000)"
fill="#000000" stroke="none">
<path d="M4978 9549 c-230 -46 -446 -150 -778 -372 -96 -64 -177 -121 -207
-147 -7 -5 -16 -10 -22 -10 -5 0 -11 -4 -13 -8 -1 -4 -79 -64 -173 -132 -93
-69 -172 -127 -175 -130 -3 -4 -27 -22 -55 -40 -27 -19 -54 -38 -60 -42 -14
-12 -108 -80 -135 -98 -13 -8 -48 -33 -79 -55 -163 -117 -410 -265 -608 -364
-138 -69 -487 -231 -498 -231 -5 0 -419 -177 -485 -208 -283 -130 -425 -209
-541 -298 -85 -65 -181 -174 -216 -245 -52 -109 -67 -186 -68 -354 0 -194 12
-296 72 -585 14 -69 27 -134 28 -145 2 -11 15 -72 29 -135 14 -63 28 -131 31
-150 3 -19 10 -51 15 -70 5 -19 11 -51 14 -71 3 -20 8 -42 10 -50 3 -8 7 -30
10 -49 3 -19 11 -62 16 -95 6 -33 13 -75 15 -94 2 -19 7 -49 10 -68 20 -126
22 -147 32 -278 13 -187 6 -617 -12 -714 -1 -9 -6 -47 -10 -86 -4 -38 -9 -83
-11 -100 -2 -16 -6 -50 -9 -75 -9 -81 -30 -227 -40 -281 -2 -9 -6 -40 -10 -70
-6 -52 -9 -71 -19 -134 -3 -16 -7 -50 -11 -75 -3 -25 -8 -56 -10 -70 -2 -14
-7 -50 -11 -80 -3 -30 -8 -66 -9 -80 -24 -193 -25 -451 -2 -559 58 -264 229
-392 817 -613 409 -154 499 -189 645 -251 448 -190 779 -409 1370 -907 50 -42
122 -102 160 -134 39 -32 82 -69 96 -81 34 -29 268 -215 299 -238 305 -219
492 -305 680 -313 124 -5 228 20 375 92 61 29 119 59 130 66 136 89 187 124
286 199 64 47 124 94 135 102 28 24 234 190 424 342 91 72 224 176 295 229 72
53 135 100 140 105 92 70 372 243 515 317 99 52 361 174 373 174 3 0 32 12 64
26 32 14 67 29 78 34 27 12 307 117 480 180 597 219 797 329 878 487 36 68 47
151 42 308 -2 83 -6 159 -8 170 -4 18 -19 117 -22 140 0 6 -4 29 -9 53 -4 23
-9 52 -11 65 -1 12 -6 40 -10 62 -4 22 -9 49 -11 60 -8 44 -56 293 -64 335 -5
25 -14 72 -20 105 -5 33 -12 71 -15 85 -21 109 -59 372 -71 490 -3 30 -7 69
-9 85 -22 157 -22 618 0 810 2 22 7 63 9 90 15 142 41 332 72 515 14 80 27
156 29 170 6 40 15 94 20 110 2 8 7 35 10 60 4 25 11 64 16 88 5 23 12 59 15
80 2 20 11 73 19 117 8 44 17 100 20 125 3 25 8 56 10 70 21 114 25 336 9 422
-18 94 -56 159 -144 248 -166 168 -328 270 -1090 685 -190 103 -374 205 -409
227 -34 21 -65 38 -67 38 -18 0 -431 259 -804 505 -140 92 -313 205 -385 250
-650 410 -1025 536 -1377 464z"/>
</g>
</svg>
